<svg id="Laag_1" xmlns="http://www.w3.org/2000/svg" viewBox="0 0 46.9 45"><style>.st0{fill:#6e2585}.st1{fill:#fff}</style><path class="st0" d="M45.5 12.9C38.5 8.9 31.7 5 24.8 1c-1-.6-1.9-.6-2.8 0C15.1 5 8.2 9 1.4 12.9c-1 .6-1.4 1.4-1.4 2.4v18.2c.8-.5 1.9-1 2.8-1.3.7-.2 1.4-.6 2-1.1S6 30 6.6 29.4c1.1-1.2 2-2.5 2.9-3.8.7-.9 1.3-1.8 2.2-2.4.7-.4 1.3-1 1.8-1.5l2.8-2.8c.1-.2.3-.4.5-.3.4.2.6-.1.7-.3 1.1-1.7 2.5-3.1 3.4-4.9.2-.5.5-.5.9-.2.2.2.4.4.4.7.2 1 .2 1.9-.4 2.9-1.5 2.4-2.9 4.9-4.8 7-.6.7-.9 1.6-1.3 2.4.4-.2.7-.4 1-.6.7-.4 1.4-.7 2.1-.9.3-.1.6 0 .8.2.7.7.7 1.3.1 2-1 1.2-2.1 2.2-3.5 3-1.1.6-1.8 1.6-2.3 2.7-.8 1.7-1.9 3.1-3.6 4-.5.2-1 .5-1.5.3-.6-.2-1.2-.1-1.7.3-1.9 1.3-3.9 2.6-5.8 4-.4.3-.8.7-1.3 1V45h29.5c.3 0 .3-.1.2-.4l-.9-1.8c-.2-.5-.6-.9-1.1-1.1-.7-.2-1.1-.6-1.4-1.2-1-1.7-1.3-3.5-1.1-5.5 0-.4.1-.7 0-1.1-.1-1.1-.6-2.1-1.1-3-.7-1.2-.9-2.5-1.1-3.9-.1-.5.2-.9.7-1.2.5-.2.9-.3 1.4.2.6.6 1 1.2 1.4 1.9.1.3.3.5.4.8.1-.9.3-1.8.1-2.8-.2-.9-.3-1.8-.4-2.8-.1-1.9-.2-3.8-.3-5.6-.1-1.1.5-2 1.2-2.8.2-.2.5-.4.8-.3.3 0 .6.2.5.6-.3 1.6.3 3.2.3 4.9 0 .5.1.9.2 1.4 0 .1.1.4.2.4.6 0 .5.5.6.8.5 1.8.8 3.7 1.6 5.5.4.9.6 1.8.8 2.7.3 1.9.3 3.9.8 5.8.3 1.3.5 2.6 1.4 3.6 1.1 1.4 2.2 2.9 2.7 4.5.1.4.4.4.7.4h8.2c.3 0 .6-.3.6-.6v-29c.1-1.1-.4-2-1.4-2.5z"/><path class="st1" d="M29.2 45h.3c.3 0 .3-.1.2-.4l-.9-1.8c-.2-.5-.6-.9-1.1-1.1-.7-.2-1.1-.6-1.4-1.2-1-1.7-1.3-3.5-1.1-5.5 0-.4.1-.7 0-1.1-.1-1.1-.6-2.1-1.1-3-.7-1.2-.9-2.5-1.1-3.9-.1-.5.2-.9.7-1.2.5-.2.9-.3 1.4.2.6.6 1 1.2 1.4 1.9.1.3.3.5.4.8.1-.9.3-1.8.1-2.8-.2-.9-.3-1.8-.4-2.8-.1-1.9-.2-3.8-.3-5.6-.1-1.1.5-2 1.2-2.8.2-.2.5-.4.8-.3.3 0 .6.2.5.6-.3 1.6.3 3.2.3 4.9 0 .5.1.9.2 1.4 0 .1.1.4.2.4.6 0 .5.5.6.8.5 1.8.8 3.7 1.6 5.5.4.9.6 1.8.8 2.7.3 1.9.3 3.9.8 5.8.3 1.3.5 2.6 1.4 3.6 1.1 1.4 2.2 2.9 2.7 4.5.1.4.4.4.7.4M0 33.5c.8-.5 1.9-1 2.8-1.3.7-.2 1.4-.6 2-1.1S6 30 6.6 29.4c1.1-1.2 2-2.5 2.9-3.8.7-.9 1.3-1.8 2.2-2.4.7-.4 1.3-1 1.8-1.5l2.8-2.8c.1-.2.3-.4.5-.3.4.2.6-.1.7-.3 1.1-1.7 2.5-3.1 3.4-4.9.2-.5.5-.5.9-.2.2.2.4.4.4.7.2 1 .2 1.9-.4 2.9-1.5 2.4-2.9 4.9-4.8 7-.6.7-.9 1.6-1.3 2.4.4-.2.7-.4 1-.6.7-.4 1.4-.7 2.1-.9.3-.1.6 0 .8.2.7.7.7 1.3.1 2-1 1.2-2.1 2.2-3.5 3-1.1.6-1.8 1.6-2.3 2.7-.8 1.7-1.9 3.1-3.6 4-.5.2-1 .5-1.5.3-.6-.2-1.2-.1-1.7.3-1.9 1.3-3.9 2.6-5.8 4-.4.3-.8.7-1.3 1"/></svg>